<svg width="150" height="26" viewBox="0 0 150 26" fill="none" xmlns="http://www.w3.org/2000/svg">
<g clip-path="url(#clip0_2_279)">
<path d="M6.99 4.77563H0V0H19.3762V4.77563H12.3881V24.4894H6.99V4.77563Z" fill="#5DAB92"/>
<path d="M24.0487 0H40.6912V4.98938H29.4412V9.54938H40.065V14.5331H29.4469V19.515H41.3156V24.4894H24.0487V0Z" fill="#5DAB92"/>
<path d="M47.5781 0H52.9781V10.1737L62.4919 0H69.5587L58.6519 11.385L70.485 24.4894H62.9419L52.9763 12.8644V24.4894H47.5762L47.5781 0Z" fill="#5DAB92"/>
<path d="M74.2913 0H79.6913V10.1737L89.2013 0H96.2606L85.3613 11.385L97.2 24.4894H89.655L79.6894 12.8644V24.4894H74.2894L74.2913 0Z" fill="#5DAB92"/>
<path d="M121.451 15.0525C121.467 16.4185 121.245 17.7769 120.795 19.0669C120.378 20.2566 119.711 21.3433 118.839 22.2544C117.925 23.1849 116.82 23.9053 115.599 24.3656C112.699 25.3803 109.539 25.3803 106.639 24.3656C105.42 23.9047 104.317 23.1843 103.404 22.2544C102.533 21.3433 101.866 20.2566 101.449 19.0669C100.999 17.7769 100.777 16.4185 100.792 15.0525V0H106.192V14.8444C106.185 15.5643 106.309 16.2796 106.556 16.9556C106.783 17.5797 107.13 18.1531 107.578 18.6431C108.02 19.118 108.557 19.4948 109.153 19.7494C109.781 20.0187 110.459 20.1547 111.142 20.1488C111.821 20.1554 112.493 20.0193 113.115 19.7494C113.704 19.4913 114.234 19.1147 114.671 18.6431C115.119 18.1531 115.466 17.5797 115.693 16.9556C115.941 16.2796 116.064 15.5643 116.057 14.8444V0H121.457L121.451 15.0525Z" fill="#5DAB92"/>
<path d="M126.782 0H134.119L144.534 17.025H144.602V0H150.002V24.5006H142.942L132.255 7.06312H132.186V24.5006H126.786L126.782 0Z" fill="#5DAB92"/>
</g>
<defs>
<clipPath id="clip0_2_279">
<rect width="150" height="25.1213" fill="white"/>
</clipPath>
</defs>
</svg>
